<svg xmlns="http://www.w3.org/2000/svg" fill-rule="evenodd" viewBox="0 0 100 100">
    <path d="M89.955 10.417H36.768c-4.943 0-8.965 4.02-8.965 8.961v9.727a1.5 1.5 0 1 0 3 0v-9.727a5.97 5.97 0 0 1 5.965-5.961h53.187c3.292 0 5.97 2.674 5.97 5.961v36.609c0 3.287-2.678 5.961-5.97 5.961H70.026c-.025 0-.049.006-.074.007-.025-.001-.048-.007-.074-.007h-13.04a1.5 1.5 0 0 0-1.5 1.5v15.495H41.02a1.5 1.5 0 1 0 0 3h44.691a1.5 1.5 0 0 0 0-3H71.379V64.948h18.576c4.946 0 8.97-4.02 8.97-8.961V19.378c0-4.941-4.024-8.961-8.97-8.961zM58.339 78.943V64.948h10.04v13.995h-10.04z"/>
    <path d="M32.282 75.095c5.586 0 11.149-2.296 15.138-6.793 7.399-8.345 6.633-21.152-1.709-28.55-8.344-7.396-21.15-6.629-28.548 1.709-7.061 7.965-6.666 19.984.636 27.496l-2.459 2.775-.568-.503a1.499 1.499 0 0 0-2.111.122L1.552 83.756a1.497 1.497 0 0 0 .118 2.119l3.493 3.121a1.496 1.496 0 0 0 2.117-.118L18.4 76.453a1.5 1.5 0 0 0-.123-2.123l-.689-.61 2.453-2.768a20.133 20.133 0 0 0 12.241 4.143zM6.044 85.761l-1.256-1.122 9.007-10.056c.079.25.219.485.43.671.26.23.579.34.901.36L6.044 85.761zm13.364-42.309c3.398-3.83 8.134-5.784 12.893-5.784 4.065 0 8.146 1.427 11.42 4.328 7.104 6.3 7.757 17.208 1.455 24.315-6.3 7.103-17.209 7.756-24.314 1.454-7.102-6.299-7.754-17.206-1.454-24.313zm44.067-22.619a1.79 1.79 0 1 0 0 3.58 1.79 1.79 0 1 0 0-3.58z"/>
</svg>
